<?xml version="1.0" standalone="no"?><!DOCTYPE svg PUBLIC "-//W3C//DTD SVG 1.1//EN" "http://www.w3.org/Graphics/SVG/1.1/DTD/svg11.dtd"><svg t="1639365527457" class="icon" viewBox="0 0 1024 1024" version="1.1" xmlns="http://www.w3.org/2000/svg" p-id="10042" xmlns:xlink="http://www.w3.org/1999/xlink" width="32" height="32"><defs><style type="text/css"></style></defs><path d="M512 512m-512 0a512 512 0 1 0 1024 0 512 512 0 1 0-1024 0Z" fill="#BDC3C7" p-id="10043"></path><path d="M698.254222 773.688889H293.888V250.311111h404.366222a31.061333 31.061333 0 0 1 31.857778 30.151111v463.075556a31.061333 31.061333 0 0 1-31.857778 30.151111z" fill="#6B7082" p-id="10044"></path><path d="M301.169778 439.068444h421.546666V584.817778H301.169778z" fill="#FABD6B" p-id="10045"></path><path d="M642.844444 573.553778h79.985778v22.755555H642.844444zM301.169778 573.553778h283.534222v22.755555H301.169778zM301.169778 427.690667h283.534222v22.755555H301.169778zM642.844444 427.690667h79.985778v22.755555H642.844444z" fill="#464C63" p-id="10046"></path><path d="M642.844444 250.311111v523.377778h-58.140444V250.311111" fill="#E1E1E6" p-id="10047"></path><path d="M642.844444 785.066667h-58.140444a11.377778 11.377778 0 0 1-11.377778-11.377778V250.311111a11.377778 11.377778 0 0 1 22.755556 0v512h35.384889V250.311111a11.377778 11.377778 0 0 1 22.755555 0v523.377778a11.377778 11.377778 0 0 1-11.377778 11.377778z" fill="#464C63" p-id="10048"></path><path d="M698.254222 785.066667H293.888a11.377778 11.377778 0 0 1-11.377778-11.377778V250.311111a11.377778 11.377778 0 0 1 11.377778-11.377778h404.366222a42.439111 42.439111 0 0 1 43.235556 41.528889v463.075556a42.439111 42.439111 0 0 1-43.235556 41.528889z m-392.988444-22.755556h392.988444a19.683556 19.683556 0 0 0 20.48-18.773333v-463.075556a19.683556 19.683556 0 0 0-20.48-18.773333H305.265778z" fill="#464C63" p-id="10049"></path></svg>